<?xml version="1.0" encoding="UTF-8" standalone="no"?>
<!-- Created with Inkscape (http://www.inkscape.org/) -->

<svg
   width="256"
   height="256"
   viewBox="0 0 67.733332 67.733333"
   version="1.1"
   id="svg5"
   inkscape:version="1.2.1 (9c6d41e410, 2022-07-14)"
   sodipodi:docname="vala-lint.svg"
   xml:space="preserve"
   inkscape:export-filename="vala-lint.png"
   inkscape:export-xdpi="96"
   inkscape:export-ydpi="96"
   xmlns:inkscape="http://www.inkscape.org/namespaces/inkscape"
   xmlns:sodipodi="http://sodipodi.sourceforge.net/DTD/sodipodi-0.dtd"
   xmlns:xlink="http://www.w3.org/1999/xlink"
   xmlns="http://www.w3.org/2000/svg"
   xmlns:svg="http://www.w3.org/2000/svg"><sodipodi:namedview
     id="namedview7"
     pagecolor="#ffffff"
     bordercolor="#666666"
     borderopacity="1.0"
     inkscape:showpageshadow="false"
     inkscape:pageopacity="0.0"
     inkscape:pagecheckerboard="0"
     inkscape:deskcolor="#d1d1d1"
     inkscape:document-units="px"
     showgrid="false"
     inkscape:zoom="0.75722503"
     inkscape:cx="-379.01547"
     inkscape:cy="66.690875"
     inkscape:window-width="1920"
     inkscape:window-height="945"
     inkscape:window-x="0"
     inkscape:window-y="30"
     inkscape:window-maximized="1"
     inkscape:current-layer="layer1" /><defs
     id="defs2"><linearGradient
       id="linearGradient876"><stop
         style="stop-color:#a56de2;stop-opacity:1"
         offset="0"
         id="stop872" /><stop
         style="stop-color:#7239b3;stop-opacity:1"
         offset="1"
         id="stop874" /></linearGradient><radialGradient
       id="a"
       gradientUnits="userSpaceOnUse"
       cy="43.5"
       cx="4.993"
       gradientTransform="matrix(2.0038 0 0 1.4 27.988 -17.4)"
       r="2.5"><stop
         stop-color="#181818"
         offset="0"
         id="stop2" /><stop
         stop-color="#181818"
         stop-opacity="0"
         offset="1"
         id="stop4" /></radialGradient><radialGradient
       id="b"
       gradientUnits="userSpaceOnUse"
       cy="43.5"
       cx="4.993"
       gradientTransform="matrix(2.0038 0 0 1.4 -20.012 -104.4)"
       r="2.5"><stop
         stop-color="#181818"
         offset="0"
         id="stop7" /><stop
         stop-color="#181818"
         stop-opacity="0"
         offset="1"
         id="stop9" /></radialGradient><linearGradient
       id="c"
       y2="39.999"
       gradientUnits="userSpaceOnUse"
       x2="25.058"
       y1="47.028"
       x1="25.058"><stop
         stop-color="#181818"
         stop-opacity="0"
         offset="0"
         id="stop12" /><stop
         stop-color="#181818"
         offset=".5"
         id="stop14" /><stop
         stop-color="#181818"
         stop-opacity="0"
         offset="1"
         id="stop16" /></linearGradient><linearGradient
       id="e"
       y2="43"
       gradientUnits="userSpaceOnUse"
       x2="24"
       gradientTransform="matrix(1.4324 0 0 1.4363 -2.378 -2.47)"
       y1="5"
       x1="24"><stop
         stop-color="#fff"
         offset="0"
         id="stop19" /><stop
         stop-color="#fff"
         stop-opacity=".235"
         offset=".063"
         id="stop21" /><stop
         stop-color="#fff"
         stop-opacity=".157"
         offset=".951"
         id="stop23" /><stop
         stop-color="#fff"
         stop-opacity=".392"
         offset="1"
         id="stop25" /></linearGradient><linearGradient
       gradientTransform="matrix(1.1631126,0,0,1.1631126,-5.2340065,-5.2340065)"
       xlink:href="#linearGradient876"
       id="linearGradient878"
       x1="31.293236"
       y1="5.0079265"
       x2="31.293236"
       y2="59.328876"
       gradientUnits="userSpaceOnUse" /></defs><g
     inkscape:label="Layer 1"
     inkscape:groupmode="layer"
     id="layer1"><g
       id="g79"
       transform="matrix(1.0590602,0,0,1.0590602,0.01575474,0.0047631)"><rect
         height="63.971191"
         width="63.971191"
         y="0"
         x="0"
         fill="url(#d)"
         color="#000000"
         id="rect47"
         style="fill:url(#linearGradient878);fill-opacity:1;stroke-width:1.16312" /><path
         opacity="0.15"
         style="isolation:auto;mix-blend-mode:normal;fill:#452981;fill-opacity:1"
         d="m 31.462,15.984 c -1.35,0 -2.705,0.166 -4.06,0.493 -1.335,0.31 -2.624,0.752 -3.866,1.326 a 20.767,20.767 0 0 0 -3.467,2.002 1.016,1.016 0 0 0 -0.005,0.004 17.304,17.304 0 0 0 -2.844,2.562 1.016,1.016 0 0 0 -0.006,0.008 12.544,12.544 0 0 0 -1.95,3.012 1.016,1.016 0 0 0 -0.005,0.011 8.348,8.348 0 0 0 -0.729,3.373 c 0,0.912 0.11,1.722 0.373,2.434 a 1.016,1.016 0 0 0 0.008,0.021 c 0.272,0.69 0.68,1.293 1.217,1.75 a 1.016,1.016 0 0 0 0.014,0.012 c 0.54,0.444 1.188,0.754 1.908,0.947 a 1.016,1.016 0 0 0 0.023,0.006 c 0.702,0.171 1.473,0.252 2.32,0.252 a 1.016,1.016 0 0 0 1.016,-1.015 c 0,-0.376 -0.132,-0.636 -0.266,-0.85 l 0.047,0.084 a 4.014,4.014 0 0 1 -0.148,-0.371 c 0,-0.001 -0.002,0 -0.002,-0.002 A 7.263,7.263 0 0 1 20.862,31.34 8.528,8.528 0 0 1 20.79,30.104 c 0,-2.366 0.542,-4.247 1.588,-5.75 0.797,-1.131 1.9,-1.962 3.17,-2.653 l 0.691,29.322 a 1.016,1.016 0 0 0 1.016,0.992 h 6.53 a 1.016,1.016 0 0 0 0.952,-0.66 L 47.331,17.576 a 1.016,1.016 0 0 0 -0.951,-1.37 h -3.164 a 1.016,1.016 0 0 0 -0.961,0.685 l -7.649,22.25 -0.314,-22.066 a 1.016,1.016 0 0 0 -0.914,-0.996 18.86,18.86 0 0 0 -0.934,-0.07 h -0.002 a 18.748,18.748 0 0 0 -0.98,-0.024 z"
         fill="#201c2c"
         color="#000000"
         id="path53" /><path
         opacity="0.3"
         color="#000000"
         fill="#201c2c"
         style="isolation:auto;mix-blend-mode:normal;fill:#452981;fill-opacity:1"
         d="m 27.255,50.999 -0.73,-30.967 q -3.188,1.195 -4.98,3.74 -1.772,2.546 -1.772,6.331 0,0.863 0.089,1.417 0.11,0.531 0.221,0.863 0.111,0.31 0.2,0.487 0.11,0.177 0.11,0.31 -1.173,0 -2.08,-0.221 -0.908,-0.244 -1.528,-0.753 -0.598,-0.508 -0.93,-1.35 -0.31,-0.84 -0.31,-2.08 0,-1.505 0.641,-2.966 0.664,-1.46 1.793,-2.767 1.151,-1.305 2.679,-2.412 1.55,-1.107 3.298,-1.904 1.77,-0.819 3.674,-1.261 Q 29.556,17 31.46,17 q 0.509,0 0.93,0.022 0.442,0.022 0.884,0.066 l 0.399,27.89 9.54,-27.758 h 3.165 L 33.784,51 h -6.53 z"
         id="path55" /><path
         fill="#ffffff"
         d="m 27.255,49.999 -0.73,-30.967 q -3.188,1.195 -4.98,3.74 -1.772,2.546 -1.772,6.331 0,0.863 0.089,1.417 0.11,0.531 0.221,0.863 0.111,0.31 0.2,0.487 0.11,0.177 0.11,0.31 -1.173,0 -2.08,-0.221 -0.908,-0.244 -1.528,-0.753 -0.598,-0.508 -0.93,-1.35 -0.31,-0.84 -0.31,-2.08 0,-1.505 0.641,-2.966 0.664,-1.46 1.793,-2.767 1.151,-1.305 2.679,-2.412 1.55,-1.107 3.298,-1.904 1.77,-0.819 3.674,-1.261 Q 29.556,16 31.46,16 q 0.509,0 0.93,0.022 0.442,0.022 0.884,0.066 l 0.399,27.89 9.54,-27.758 h 3.165 L 33.784,50 h -6.53 z"
         id="path57" /></g><path
       d="m 48.862153,39.572452 -1.192195,0.445889 c -0.09487,0.03478 -0.158116,0.126493 -0.158116,0.227688 0,0.101194 0.06325,0.192901 0.158116,0.227687 l 1.192195,0.445888 0.445891,1.192198 c 0.03478,0.09487 0.126493,0.158117 0.227686,0.158117 0.101198,0 0.192906,-0.06325 0.227691,-0.158117 l 0.445886,-1.192198 1.1922,-0.445888 c 0.09487,-0.03478 0.158115,-0.126493 0.158115,-0.227687 0,-0.101195 -0.06325,-0.192903 -0.158115,-0.227688 l -1.1922,-0.445889 -0.445886,-1.192198 c -0.03478,-0.09487 -0.126493,-0.158116 -0.227691,-0.158116 -0.101193,0 -0.192901,0.06325 -0.227686,0.158116 z m -5.964151,11.153534 c -0.591355,0.591355 -0.591355,1.552703 0,2.147221 l 1.094168,1.094166 c 0.591355,0.591355 1.552702,0.591355 2.147219,0 L 58.19735,41.906251 c 0.591354,-0.591356 0.591354,-1.552704 0,-2.147221 l -1.094166,-1.091004 c -0.591355,-0.591355 -1.552704,-0.591355 -2.147221,0 z m 13.866812,-9.891765 -3.320445,3.320445 -0.736822,-0.736822 3.320445,-3.320445 z m -15.087469,1.094166 c -0.142306,0.05376 -0.237176,0.18974 -0.237176,0.341532 0,0.151791 0.09487,0.287771 0.237176,0.341531 l 1.786717,0.670413 0.67041,1.786716 c 0.05376,0.142305 0.189739,0.237175 0.341531,0.237175 0.151792,0 0.287775,-0.09487 0.341531,-0.237175 l 0.670415,-1.786716 1.786717,-0.670413 c 0.142307,-0.05376 0.237176,-0.18974 0.237176,-0.341531 0,-0.151792 -0.09487,-0.287772 -0.237176,-0.341532 l -1.786717,-0.670414 -0.670415,-1.786715 c -0.05376,-0.142305 -0.189739,-0.237175 -0.341531,-0.237175 -0.151792,0 -0.28777,0.09487 -0.341531,0.237175 l -0.67041,1.786715 z m 11.131396,8.095562 c -0.142305,0.05376 -0.237172,0.18974 -0.237172,0.341531 0,0.151792 0.09487,0.287772 0.237172,0.341532 l 1.786716,0.670414 0.670414,1.786715 c 0.05376,0.142305 0.189739,0.237175 0.341531,0.237175 0.151792,0 0.287772,-0.09487 0.341532,-0.237175 l 0.670414,-1.786715 1.786716,-0.670414 c 0.142304,-0.05376 0.237174,-0.18974 0.237174,-0.341532 0,-0.151791 -0.09487,-0.287772 -0.237174,-0.341531 l -1.786716,-0.670414 -0.670414,-1.786716 c -0.05376,-0.142305 -0.18974,-0.237175 -0.341532,-0.237175 -0.151792,0 -0.287772,0.09487 -0.341531,0.237175 l -0.670414,1.786716 z"
       id="path81"
       style="fill:#ffffff;stroke-width:0.61383333;stroke:#7642b6;stroke-opacity:1;stroke-dasharray:none" /></g></svg>
